<svg xmlns="http://www.w3.org/2000/svg" viewBox="0 0 1397.76 174.74"><defs><style>.cls-1{fill:#b4b4b9;}.cls-2{fill:#fff;}</style></defs><g id="Layer_2" data-name="Layer 2"><g id="Layer_1-2" data-name="Layer 1"><path class="cls-1" d="M753.76,90.65c0-30.74,18.45-53.75,46.81-53.75,32.92,0,44.23,27.17,44,55.93H766.46c.59,23,11.7,41.05,35.1,41.05,17.06,0,26-9.12,30-23h11.9c-4.36,20.23-18.84,33.52-41.85,33.52C770.82,144.4,753.76,121.39,753.76,90.65Zm78-7.54c-.6-20.23-10.12-36.1-31.14-36.1-20.83,0-31.73,15.67-33.91,36.1Z"/><path class="cls-1" d="M883.67,87.67,849.36,39.28h14.28l26.78,39.47h.39l26.78-39.47h13.88l-33.32,47.4,39.27,55.14H922.94L891,95.61h-.4l-31.53,46.21H845.2Z"/><path class="cls-1" d="M949.32,39.28h12.3V56.93H962c7.14-12.1,18.45-19.83,34.71-19.83,24.6,0,42.45,19.43,42.45,53.55,0,31.53-16.27,53.75-43.24,53.75-15.67,0-26.18-6.15-33.92-17.46h-.39v47.8h-12.3Zm77.35,51.57c0-25.59-11.11-43.44-31.53-43.44-22.61,0-34.52,19.24-34.52,43.63,0,25.19,11.31,43,34.71,43C1016.36,134.08,1026.67,114.65,1026.67,90.85Z"/><path class="cls-1" d="M1055,0h12.3V141.82H1055Z"/><path class="cls-1" d="M1083.2,90.65c0-30.55,18-53.75,47.6-53.75S1178,60.1,1178,90.65s-17.65,53.75-47.2,53.75S1083.2,121.19,1083.2,90.65Zm82.31,0c0-24-11.9-43.44-34.71-43.44-23,0-34.91,19.44-34.91,43.44s11.9,43.43,34.91,43.43C1153.61,134.08,1165.51,114.65,1165.51,90.65Z"/><path class="cls-1" d="M1193.47,39.28h12.3v19h.39c6.35-11.9,17.06-19.83,31.34-19.83a12.87,12.87,0,0,1,3.37.39V51a29.7,29.7,0,0,0-21.81,5c-7.94,6-13.29,15.47-13.29,27.57v58.31h-12.3Z"/><path class="cls-1" d="M1244.25,90.65c0-30.74,18.44-53.75,46.8-53.75,32.93,0,44.23,27.17,44,55.93h-78.14c.59,23,11.7,41.05,35.1,41.05,17.06,0,26-9.12,30-23h11.9c-4.36,20.23-18.84,33.52-41.85,33.52C1261.3,144.4,1244.25,121.39,1244.25,90.65Zm77.94-7.54c-.59-20.23-10.11-36.1-31.14-36.1-20.82,0-31.73,15.67-33.91,36.1Z"/><path class="cls-1" d="M1350.35,39.28h12.3v19h.4c6.34-11.9,17-19.83,31.33-19.83a13,13,0,0,1,3.38.39V51a29.74,29.74,0,0,0-21.82,5c-7.93,6-13.29,15.47-13.29,27.57v58.31h-12.3Z"/><path class="cls-2" d="M109,84.85a161.79,161.79,0,0,1,43.46-16.24L141.21,34q-7.23,3.16-14.88,5.66a164.25,164.25,0,0,1-29.88,6.71A161.82,161.82,0,0,1,94.43,0H58c.51,5.23.78,10.54.78,15.9A164,164,0,0,1,56,46.39,161.53,161.53,0,0,1,11.25,34L0,68.61q7.71,1.69,15.36,4.17A162.64,162.64,0,0,1,43.48,84.92,161.64,161.64,0,0,1,17.87,123.6L47.31,145q4-6.81,8.72-13.32a163.84,163.84,0,0,1,20.23-23A161.72,161.72,0,0,1,105.14,145l29.45-21.39c-3.49-3.94-6.83-8.07-10-12.41A163.47,163.47,0,0,1,109,84.85Z"/><path class="cls-2" d="M202.64,0H311.93V34.91H244.09V58.12h56.14V90.25H244.09v51.58H202.64Z"/><path class="cls-2" d="M309.76,91.44c0-30.74,21.82-53.75,55.54-53.75s55.14,23,55.14,53.75S399,145,365.3,145,309.76,122.19,309.76,91.44Zm72.6,0c0-17.06-6-28.56-17.46-28.56s-17.06,11.5-17.06,28.56S353.4,120,364.9,120,382.36,108.5,382.36,91.44Z"/><path class="cls-2" d="M465.47,55.94h.6c8.13-12.7,17.85-17.46,30.74-17.46a14.49,14.49,0,0,1,6.15,1V71.41h-.79c-22-3.77-34.91,6.15-34.91,29v41.46H429.77V40.66h35.7Z"/><path class="cls-2" d="M508.52,40.66h13.09V7.93h36.7V40.66h19.24V63.28H558.31v41.06c0,10.11,7.14,10.31,18.84,9.52v27.57a76.75,76.75,0,0,1-18.44,2.38c-24.6,0-37.1-6.94-37.1-31.14V63.28H508.52Z"/><path class="cls-2" d="M649.36,130.72H649c-6.74,9.32-17.46,13.68-30.55,13.68-19.44,0-33.72-10.51-33.72-30.34,0-22.42,17.26-29,36.7-31.15,21.42-2.38,27.17-5,27.17-11.3,0-5.56-2.58-9.72-10.71-9.72s-12.3,4.76-13.29,12.1h-35.5c.79-20,16.26-36.5,48-36.5,15.47,0,25.39,2,33.12,6.74,10.52,6.55,15.67,16.86,15.67,30.35v50.58c0,8.53.6,13.1,3.77,15.08v1.59H652.73C651.34,139.45,650.15,136.27,649.36,130.72Zm.19-25.59V96.2A60.88,60.88,0,0,1,635.07,101c-10.91,2.38-14.28,5.56-14.28,11.51,0,6.74,5.56,9.72,11.71,9.72C641.22,122.19,649.55,117.23,649.55,105.13Z"/></g></g></svg>